<svg xmlns="http://www.w3.org/2000/svg" width="16" height="16" viewBox="0 0 16 16">
  <defs>
    <style>
      .cls-1 {
        fill: #fff;
        fill-rule: evenodd;
      }
    </style>
  </defs>
  <path id="Фигура_1" data-name="Фигура 1" class="cls-1" d="M7.788,0a3.466,3.466,0,0,1,2.726,1.27c0.277,0.343.6,0.652,0.859,1.02A16.074,16.074,0,0,1,13.71,7.71a8.163,8.163,0,0,1,.11,3.8A5.949,5.949,0,0,1,9.8,15.74,9.792,9.792,0,0,1,8.347,16l-0.679-.01c-0.273-.041-0.511-0.027-0.759-0.08A7.255,7.255,0,0,1,5.5,15.45,6.094,6.094,0,0,1,2.166,8.39,17.245,17.245,0,0,1,4.383,2.7,6.832,6.832,0,0,1,6.44.48,3.516,3.516,0,0,1,7.3.09Z"/>
</svg>
